<svg width="25" height="25" viewBox="0 0 25 25" fill="none" xmlns="http://www.w3.org/2000/svg">
<path fill-rule="evenodd" clip-rule="evenodd" d="M11.4583 12.5C11.4583 13.0753 11.9247 13.5416 12.5 13.5416C13.0753 13.5416 13.5417 13.0753 13.5417 12.5C13.5417 11.9247 13.0753 11.4583 12.5 11.4583C11.9247 11.4583 11.4583 11.9247 11.4583 12.5Z" stroke="#CCBED0" stroke-width="1.2"/>
<path fill-rule="evenodd" clip-rule="evenodd" d="M11.4583 6.24998C11.4583 6.82528 11.9247 7.29165 12.5 7.29165C13.0753 7.29165 13.5417 6.82528 13.5417 6.24998C13.5417 5.67468 13.0753 5.20831 12.5 5.20831C11.9247 5.20831 11.4583 5.67468 11.4583 6.24998Z" stroke="#CCBED0" stroke-width="1.2"/>
<path fill-rule="evenodd" clip-rule="evenodd" d="M11.4583 18.75C11.4583 19.3253 11.9247 19.7916 12.5 19.7916C13.0753 19.7916 13.5417 19.3253 13.5417 18.75C13.5417 18.1747 13.0753 17.7083 12.5 17.7083C11.9247 17.7083 11.4583 18.1747 11.4583 18.75Z" stroke="#CCBED0" stroke-width="1.2"/>
</svg>
