<svg width="25" height="25" viewBox="0 0 25 25" fill="none" xmlns="http://www.w3.org/2000/svg">
<path d="M9.9608 4.49255L9.48646 4.33443L9.48646 4.33443L9.9608 4.49255ZM9.50897 5.84805L9.71428 6.30395L9.91403 6.21399L9.98331 6.00616L9.50897 5.84805ZM8.23641 6.58407L8.13617 7.07392L8.35116 7.11792L8.52908 6.98946L8.23641 6.58407ZM6.83491 6.29728L6.73467 6.78713L6.73467 6.78713L6.83491 6.29728ZM4.7019 7.25667L4.26889 7.00667L4.26889 7.00667L4.7019 7.25667ZM4.06009 8.36833L3.62708 8.11833L3.62708 8.11833L4.06009 8.36833ZM4.29573 10.6953L3.92163 11.027L3.92163 11.027L4.29573 10.6953ZM5.24484 11.7656L5.74236 11.8153L5.76414 11.5976L5.61894 11.4339L5.24484 11.7656ZM5.24484 13.2344L5.61894 13.5661L5.76414 13.4024L5.74236 13.1847L5.24484 13.2344ZM4.29573 14.3047L4.66983 14.6365L4.66983 14.6365L4.29573 14.3047ZM4.06009 16.6317L3.62707 16.8817L3.62707 16.8817L4.06009 16.6317ZM4.7019 17.7433L5.13491 17.4933L5.13491 17.4933L4.7019 17.7433ZM6.83491 18.7027L6.93515 19.1926L6.93515 19.1926L6.83491 18.7027ZM8.23641 18.4159L8.52909 18.0105L8.35116 17.8821L8.13617 17.9261L8.23641 18.4159ZM9.50897 19.152L9.98331 18.9938L9.91403 18.786L9.71428 18.6961L9.50897 19.152ZM9.9608 20.5075L9.48646 20.6656L9.48646 20.6656L9.9608 20.5075ZM15.0392 20.5075L14.5648 20.3493L14.5648 20.3493L15.0392 20.5075ZM15.491 19.152L15.2857 18.6961L15.0859 18.786L15.0167 18.9938L15.491 19.152ZM16.7636 18.4159L16.8638 17.9261L16.6488 17.8821L16.4709 18.0105L16.7636 18.4159ZM18.1651 18.7027L18.0648 19.1926L18.0648 19.1926L18.1651 18.7027ZM20.2981 17.7433L19.8651 17.4933L19.8651 17.4933L20.2981 17.7433ZM20.9399 16.6317L21.3729 16.8817L21.3729 16.8817L20.9399 16.6317ZM20.7042 14.3047L21.0783 13.973L21.0783 13.973L20.7042 14.3047ZM19.7551 13.2344L19.2576 13.1847L19.2358 13.4024L19.381 13.5661L19.7551 13.2344ZM19.7551 11.7656L19.381 11.4339L19.2358 11.5976L19.2576 11.8153L19.7551 11.7656ZM20.7042 10.6953L21.0783 11.027L21.0783 11.027L20.7042 10.6953ZM20.9399 8.36833L20.5069 8.61833L20.5069 8.61833L20.9399 8.36833ZM20.2981 7.25667L20.7311 7.00667L20.7311 7.00667L20.2981 7.25667ZM18.1651 6.29728L18.2653 6.78713L18.2653 6.78713L18.1651 6.29728ZM16.7636 6.58407L16.4709 6.98946L16.6488 7.11792L16.8638 7.07392L16.7636 6.58407ZM15.491 5.84805L15.0167 6.00616L15.0859 6.21399L15.2857 6.30395L15.491 5.84805ZM15.0392 4.49254L15.5135 4.33443L15.5135 4.33443L15.0392 4.49254ZM10.4351 4.65066C10.6393 4.03815 11.2125 3.625 11.8582 3.625V2.625C10.7821 2.625 9.82674 3.31358 9.48646 4.33443L10.4351 4.65066ZM9.98331 6.00616L10.4351 4.65066L9.48646 4.33443L9.03463 5.68993L9.98331 6.00616ZM8.52908 6.98946C8.89818 6.72299 9.29498 6.49278 9.71428 6.30395L9.30365 5.39214C8.82226 5.60894 8.36698 5.87312 7.94373 6.17868L8.52908 6.98946ZM6.73467 6.78713L8.13617 7.07392L8.33665 6.09422L6.93515 5.80743L6.73467 6.78713ZM5.13492 7.50667C5.45774 6.94753 6.10214 6.65769 6.73467 6.78713L6.93515 5.80743C5.88093 5.5917 4.80693 6.07476 4.26889 7.00667L5.13492 7.50667ZM4.4931 8.61833L5.13492 7.50667L4.26889 7.00667L3.62708 8.11833L4.4931 8.61833ZM4.66984 10.3635C4.24147 9.88046 4.17028 9.17747 4.4931 8.61833L3.62708 8.11833C3.08904 9.05024 3.20769 10.2219 3.92163 11.027L4.66984 10.3635ZM5.61894 11.4339L4.66984 10.3635L3.92163 11.027L4.87074 12.0973L5.61894 11.4339ZM5.70832 12.5C5.70832 12.2688 5.71985 12.0404 5.74236 11.8153L4.74732 11.7158C4.72152 11.9739 4.70832 12.2355 4.70832 12.5H5.70832ZM5.74236 13.1847C5.71985 12.9596 5.70832 12.7312 5.70832 12.5H4.70832C4.70832 12.7645 4.72152 13.0261 4.74732 13.2842L5.74236 13.1847ZM4.66983 14.6365L5.61894 13.5661L4.87074 12.9027L3.92163 13.973L4.66983 14.6365ZM4.4931 16.3817C4.17028 15.8225 4.24147 15.1195 4.66983 14.6365L3.92163 13.973C3.20769 14.7781 3.08904 15.9498 3.62707 16.8817L4.4931 16.3817ZM5.13491 17.4933L4.4931 16.3817L3.62707 16.8817L4.26889 17.9933L5.13491 17.4933ZM6.73467 18.2129C6.10214 18.3423 5.45774 18.0525 5.13491 17.4933L4.26889 17.9933C4.80693 18.9252 5.88093 19.4083 6.93515 19.1926L6.73467 18.2129ZM8.13617 17.9261L6.73467 18.2129L6.93515 19.1926L8.33665 18.9058L8.13617 17.9261ZM9.71428 18.6961C9.29498 18.5072 8.89818 18.277 8.52909 18.0105L7.94374 18.8213C8.36698 19.1269 8.82226 19.3911 9.30366 19.6079L9.71428 18.6961ZM10.4351 20.3493L9.98331 18.9938L9.03463 19.3101L9.48646 20.6656L10.4351 20.3493ZM11.8582 21.375C11.2125 21.375 10.6393 20.9619 10.4351 20.3493L9.48646 20.6656C9.82674 21.6864 10.7821 22.375 11.8582 22.375V21.375ZM13.1418 21.375H11.8582V22.375H13.1418V21.375ZM14.5648 20.3493C14.3607 20.9619 13.7874 21.375 13.1418 21.375V22.375C14.2179 22.375 15.1732 21.6864 15.5135 20.6656L14.5648 20.3493ZM15.0167 18.9938L14.5648 20.3493L15.5135 20.6656L15.9653 19.3101L15.0167 18.9938ZM16.4709 18.0105C16.1018 18.277 15.705 18.5072 15.2857 18.6961L15.6963 19.6079C16.1777 19.3911 16.633 19.1269 17.0562 18.8213L16.4709 18.0105ZM18.2653 18.2129L16.8638 17.9261L16.6633 18.9058L18.0648 19.1926L18.2653 18.2129ZM19.8651 17.4933C19.5422 18.0525 18.8978 18.3423 18.2653 18.2129L18.0648 19.1926C19.119 19.4083 20.193 18.9252 20.7311 17.9933L19.8651 17.4933ZM20.5069 16.3817L19.8651 17.4933L20.7311 17.9933L21.3729 16.8817L20.5069 16.3817ZM20.3301 14.6365C20.7585 15.1195 20.8297 15.8225 20.5069 16.3817L21.3729 16.8817C21.9109 15.9498 21.7923 14.7781 21.0783 13.973L20.3301 14.6365ZM19.381 13.5661L20.3301 14.6365L21.0783 13.973L20.1292 12.9027L19.381 13.5661ZM19.2916 12.5C19.2916 12.7312 19.2801 12.9596 19.2576 13.1847L20.2526 13.2842C20.2784 13.0261 20.2916 12.7645 20.2916 12.5H19.2916ZM19.2576 11.8153C19.2801 12.0404 19.2916 12.2688 19.2916 12.5H20.2916C20.2916 12.2355 20.2784 11.9739 20.2526 11.7158L19.2576 11.8153ZM20.3301 10.3635L19.381 11.4339L20.1292 12.0973L21.0783 11.027L20.3301 10.3635ZM20.5069 8.61833C20.8297 9.17747 20.7585 9.88046 20.3301 10.3635L21.0783 11.027C21.7923 10.2219 21.9109 9.05024 21.3729 8.11833L20.5069 8.61833ZM19.8651 7.50667L20.5069 8.61833L21.3729 8.11833L20.7311 7.00667L19.8651 7.50667ZM18.2653 6.78713C18.8978 6.65769 19.5422 6.94753 19.8651 7.50667L20.7311 7.00667C20.193 6.07476 19.119 5.5917 18.0648 5.80743L18.2653 6.78713ZM16.8638 7.07392L18.2653 6.78713L18.0648 5.80743L16.6633 6.09422L16.8638 7.07392ZM15.2857 6.30395C15.705 6.49278 16.1018 6.72299 16.4709 6.98946L17.0562 6.17868C16.633 5.87312 16.1777 5.60894 15.6963 5.39214L15.2857 6.30395ZM14.5648 4.65066L15.0167 6.00616L15.9653 5.68993L15.5135 4.33443L14.5648 4.65066ZM13.1418 3.625C13.7874 3.625 14.3607 4.03814 14.5648 4.65066L15.5135 4.33443C15.1732 3.31358 14.2179 2.625 13.1418 2.625V3.625ZM11.8582 3.625H13.1418V2.625H11.8582V3.625Z" fill="#8D52A9"/>
<path fill-rule="evenodd" clip-rule="evenodd" d="M12.5 13.5416C13.0753 13.5416 13.5416 13.0753 13.5416 12.5C13.5416 11.9247 13.0753 11.4583 12.5 11.4583C11.9247 11.4583 11.4583 11.9247 11.4583 12.5C11.4583 13.0753 11.9247 13.5416 12.5 13.5416Z" stroke="#8D52A9" stroke-width="1.2"/>
</svg>
